<svg version="1" xmlns="http://www.w3.org/2000/svg" width="2666.667" height="2666.667" viewBox="0 0 2000.000000 2000.000000"><path d="M226 156.6c-9 1.4-15.6 2.8-23 5.1-9.2 2.7-26 10.6-28.4 13.2-4.6 5-12.2 23.8-16.4 40.1-1.5 6-1.7 63.9-2 788.5-.2 715.9-.1 782.8 1.3 792 2.1 12.9 7.5 29.2 12.8 38.5 3.4 5.9 5.2 8 9.2 10.3 7.7 4.6 20 9.6 31 12.5l10 2.7 426.5.2c384.3.2 426.2.1 423-1.3-1.9-.9-9.1-3.7-16-6.4-30.3-11.8-74.9-34.5-98.9-50.3-3.5-2.3-7.1-3.8-10.5-4.2-11.3-1.6-25.4-9-32.7-17.3-2.2-2.6-5.6-7.4-7.5-10.8-1.9-3.4-5.1-7.5-7.2-9-10.3-7.7-32.7-27.9-49.2-44.4-40.2-40.1-72.4-82-100.4-130.9-13.4-23.2-30.2-58.2-38.2-79.4l-2.9-7.8-.5 128.8-.5 128.8-2.2 5.8c-5.3 13.8-14.2 24.2-25.8 30-13.1 6.6 1.1 6.2-207 6.2h-190l-6.5-2.4c-14.2-5.2-25-14.5-30.9-26.6-6.6-13.3-6.2 1-5.9-208.1l.3-189.9 2.7-6.8c6.1-15.1 17.3-25.8 33.6-32l5.7-2.2 187.5-.3c103.1-.2 189.9 0 192.8.3 2.8.4 5.8 1.3 6.6 2.1.8.8 1.7 1 2 .5.3-.5.1-9.4-.5-19.7-.6-10.4-.9-29.6-.7-42.7l.5-23.7-5.1.7c-2.8.5-89.9.8-193.6.8H280.5l-6.5-2.4c-14.2-5.2-25-14.5-30.9-26.6-6.6-13.3-6.2 1-5.9-208.1l.3-189.9 2.7-6.8c6.1-15.1 17.3-25.8 33.6-32l5.7-2.2 189.4-.3c208.6-.3 194.3-.7 207.6 5.9 12.1 5.9 21.6 17 26.7 31.1l2.3 6.3.5 120c.5 119.7.5 120 2.4 115C750.9 946.8 827.2 849.1 925 779.8c80.9-57.3 176-94.7 273-107.3 22-2.8 27.1-3.3 49.5-4.6 59.1-3.2 120 2.2 178.4 16 9.1 2.2 17.4 4.3 18.4 4.6 1.6.7 1.7-10.8 1.7-231.6 0-227.5-.1-232.6-2-241.9-1.1-5.2-2-11.9-2-14.8 0-4.3-.3-5.2-1.7-5.2-1.3 0-3.3-3.1-6.9-10.2l-5-10.1-8.7-4.7c-8.7-4.7-19.4-8.6-32.2-11.7-6.6-1.7-40.9-1.8-583-1.9-316.8-.1-577.1 0-578.5.2zm1054.2 127.1c33.9 9.7 57.4 32.8 67 66l2.3 7.8V442c0 78.5-.1 85-1.8 90.9-2.4 8.4-7.7 20.1-9.1 20.1-.6 0-2.2 2.7-3.5 6-1.7 4.2-4.5 8.3-9.7 13.8-12.6 13.6-28.5 22.9-46.9 27.3-7.8 1.9-17.8 1.9-476.6 1.9-312.6 0-470.4-.3-474-1-35.8-6.7-63.5-33-73.1-69.3-2.2-8-2.2-9.8-2.6-84.7-.2-52 .1-79.2.8-84.9 4.2-32.1 24-59.1 53.4-72.6 6.6-3.1 19.1-6.8 26.1-7.8 1.7-.2 213.8-.4 471.5-.3l468.5.1 7.7 2.2z"/><path d="M1246 770.1c-55.1 4.2-102.4 14.6-151.5 33.6-7.7 2.9-15.3 6-17 6.7-1.6.8-7.1 3.2-12.1 5.5-20.3 9.1-44.3 22.5-67.4 37.6-101.7 66.5-176.8 169.3-209.8 287-21.2 75.6-24.9 155.9-10.7 233.5 20.5 112.4 79.7 216.4 166.4 292.4 88.5 77.5 197.8 121.4 315.2 126.6 165.5 7.3 323.4-65.8 426.5-197.5 107-136.7 136.8-320.5 78.9-486.5-40.1-114.8-122.6-213.3-229.6-273.8-57.2-32.4-118.4-52.7-187.4-62.2-25.5-3.5-75.1-4.9-101.5-2.9zm49.9 154.9c16.6 4.6 28.7 16.2 34.3 32.9l2.3 6.6.3 114.2.3 114.2 5.7 3.8c7.3 4.8 22.7 20.2 27.5 27.5l3.8 5.8 165.7.2 165.7.3 5.5 2.1c8.7 3.4 14.5 7.1 20.3 12.9 20.3 20.3 19.4 53.9-1.9 73.4-5.9 5.5-10.2 8-19.4 11.5l-5.5 2.1-165.5.3-165.5.3-2.9 4.6c-14.3 22.4-40.7 39.9-67.1 44.4-10 1.7-29.5 1.4-38.7-.5-38.6-8.2-68.6-36.9-78.9-75.6-1.9-7.1-2.3-11.1-2.4-24.5 0-14.4.3-17 2.7-26 6.7-24.4 24.7-49.1 44.2-60.5l3.5-2.2.4-115.1c.3-127-.2-118 6.6-129.8 11.4-20 35.6-29.3 59-22.9z"/><path d="M1271 1231.1c-17.2 2.9-33.5 17.3-38.5 34.1-6.7 22.6 2.2 47.1 21.5 59.3 8.8 5.6 16.5 7.7 27.5 7.7 10.6 0 17.2-1.9 26.9-7.6 5.3-3.1 13.1-10.9 16.2-16.2 5.8-9.9 7.6-16.2 7.6-27.4 0-8.9-.4-11.6-2.6-17.3-3.4-8.8-6.3-13.3-12.7-19.6-11.3-11.2-28-15.9-45.9-13zM458.8 797c-17.9 4.5-33.1 21.7-35.8 40.5-.5 4-1 32.5-1 67.2V965h-62.8c-53.1 0-63.7.2-68.7 1.5-17.9 4.6-30.9 17.1-35.6 34.3-6 21.5 4 44.7 23.9 55.5 10 5.5 13 5.7 81 5.7H422v60.2c0 34.8.5 63.3 1 67.3 3.8 26.2 29.1 45.4 54.7 41.5 7.9-1.2 19-6.3 25-11.5 5.8-4.9 11.9-14.5 14.3-22.2 1.9-6.2 2-9.2 2-70.9V1062h62.3c40.5 0 64.4-.4 68.3-1.1 18.2-3.3 33-17.6 37.9-36.4 5.2-20.4-5.4-43.9-24.3-53.4-12.2-6.2-11.4-6.1-80.9-6.1H519v-64.4c0-72.9.2-71.1-8.1-83.5-5.3-7.9-10.7-12.5-19.8-16.9-6.8-3.3-8.2-3.6-18-3.8-5.8-.2-12.3.1-14.3.6zM1894.6 1321.2c-1.3 10.3-1.3 10.8.1 10.8 1 0 1.3-1.9 1.3-7.5 0-8.3-.6-9.7-1.4-3.3zM335.8 1402.3c-13.1 4.5-22.9 13.5-29.2 26.7-2.9 6.2-3.1 7.1-3.1 19.1v12.5l3.9 8c3.7 7.6 5.7 9.7 49.5 53.7l45.5 45.7-46 46.3c-44.5 44.6-46.1 46.5-49.4 53.6-2.8 6.4-3.4 8.9-3.8 17.2-.4 8-.1 10.9 1.7 16.8 4.2 13.7 15.6 26.1 28.8 31.1 7.2 2.7 19.8 3.7 27.5 2.1 13.6-2.9 14.5-3.7 64.1-53l45.7-45.6 45.3 45.2c28.2 28.1 47 46.1 50 47.8 18.9 10.8 42.9 8 57.9-6.9 12.8-12.5 17.7-30 13.3-47.1-3.2-12-4.6-13.6-52.4-61.8l-45.5-45.7 45.5-45.8c33-33.2 46.2-47.1 48.2-50.8 10-19 6.8-41.9-7.9-56.9-15.7-15.9-39.6-19.2-59.1-8-3 1.7-21.8 19.7-50 47.9l-45.3 45.1-45.2-45.1c-28.1-28-47.1-46.2-50.1-47.9-11.9-6.9-27.3-8.5-39.9-4.2z"/></svg>